<?xml version="1.0" encoding="UTF-8"?>
<svg xmlns="http://www.w3.org/2000/svg" xmlns:xlink="http://www.w3.org/1999/xlink" width="46px" height="50px" viewBox="0 0 46 49" version="1.1">
<g id="surface1">
<path style=" stroke:none;fill-rule:nonzero;fill:rgb(0%,0%,0%);fill-opacity:1;" d="M 12.992188 1.066406 C 12.851562 1.160156 12.082031 1.550781 11.28125 1.933594 C 10.476562 2.320312 9.664062 2.730469 9.46875 2.839844 C 8.726562 3.269531 8.265625 3.675781 8.046875 4.089844 C 7.949219 4.273438 7.9375 4.347656 7.9375 4.597656 C 7.941406 4.800781 7.960938 4.945312 8.007812 5.046875 L 8.070312 5.1875 L 8.484375 5.167969 C 9.121094 5.132812 9.5 4.988281 10.003906 4.5625 C 10.355469 4.269531 10.527344 4.074219 11.300781 3.09375 C 12.109375 2.0625 12.242188 1.898438 12.8125 1.34375 C 13.0625 1.09375 13.261719 0.886719 13.257812 0.894531 C 13.246094 0.894531 13.132812 0.972656 12.992188 1.066406 Z M 12.992188 1.066406 "/>
<path style=" stroke:none;fill-rule:nonzero;fill:rgb(0%,0%,0%);fill-opacity:1;" d="M 33.199219 1.339844 C 33.765625 1.902344 33.910156 2.070312 34.710938 3.09375 C 35.476562 4.070312 35.648438 4.269531 36.003906 4.5625 C 36.507812 4.980469 36.886719 5.132812 37.519531 5.167969 L 37.929688 5.1875 L 38 5.066406 C 38.050781 4.972656 38.070312 4.847656 38.070312 4.617188 C 38.070312 4.347656 38.054688 4.273438 37.96875 4.09375 C 37.75 3.667969 37.238281 3.230469 36.425781 2.777344 C 36.21875 2.660156 35.421875 2.265625 34.660156 1.898438 C 33.890625 1.53125 33.148438 1.152344 32.996094 1.054688 L 32.726562 0.882812 Z M 33.199219 1.339844 "/>
<path style=" stroke:none;fill-rule:nonzero;fill:rgb(0%,0%,0%);fill-opacity:1;" d="M 7.183594 3.289062 C 5.90625 4.398438 5.304688 5.539062 5.511719 6.484375 C 5.574219 6.777344 5.808594 7.304688 5.878906 7.304688 C 5.960938 7.304688 6.679688 6.570312 6.839844 6.339844 C 7.078125 5.96875 7.148438 5.710938 7.210938 4.878906 C 7.265625 4.117188 7.328125 3.730469 7.457031 3.296875 C 7.496094 3.15625 7.527344 3.03125 7.515625 3.027344 C 7.511719 3.011719 7.355469 3.136719 7.183594 3.289062 Z M 7.183594 3.289062 "/>
<path style=" stroke:none;fill-rule:nonzero;fill:rgb(0%,0%,0%);fill-opacity:1;" d="M 38.488281 3.078125 C 38.671875 3.675781 38.726562 3.996094 38.796875 4.878906 C 38.863281 5.710938 38.925781 5.972656 39.171875 6.339844 C 39.320312 6.566406 40.054688 7.304688 40.125 7.304688 C 40.175781 7.304688 40.363281 6.933594 40.460938 6.667969 C 40.554688 6.394531 40.554688 5.804688 40.460938 5.496094 C 40.363281 5.1875 40.066406 4.648438 39.796875 4.292969 C 39.5625 3.996094 38.6875 3.121094 38.546875 3.046875 C 38.476562 3.011719 38.46875 3.019531 38.488281 3.078125 Z M 38.488281 3.078125 "/>
<path style=" stroke:none;fill-rule:nonzero;fill:rgb(0%,0%,0%);fill-opacity:1;" d="M 4.863281 5.875 C 3.410156 7.636719 3.070312 9.125 3.878906 10.222656 C 4.132812 10.566406 4.09375 10.558594 4.308594 10.324219 C 4.578125 10.035156 4.90625 9.550781 5.042969 9.246094 C 5.226562 8.820312 5.25 8.511719 5.175781 7.730469 C 5.101562 6.964844 5.089844 6.246094 5.15625 5.832031 C 5.175781 5.671875 5.1875 5.535156 5.175781 5.53125 C 5.171875 5.519531 5.027344 5.679688 4.863281 5.875 Z M 4.863281 5.875 "/>
<path style=" stroke:none;fill-rule:nonzero;fill:rgb(0%,0%,0%);fill-opacity:1;" d="M 40.832031 5.625 C 40.902344 6.011719 40.902344 6.929688 40.839844 7.675781 C 40.757812 8.542969 40.773438 8.789062 40.957031 9.226562 C 41.109375 9.585938 41.761719 10.503906 41.878906 10.507812 C 41.9375 10.511719 42.207031 10.140625 42.335938 9.859375 C 42.84375 8.792969 42.457031 7.464844 41.1875 5.921875 C 40.8125 5.476562 40.804688 5.46875 40.832031 5.625 Z M 40.832031 5.625 "/>
<path style=" stroke:none;fill-rule:nonzero;fill:rgb(0%,0%,0%);fill-opacity:1;" d="M 10.011719 5.773438 C 9.988281 5.792969 9.867188 5.839844 9.742188 5.890625 C 9.539062 5.96875 9.417969 5.976562 8.726562 5.996094 L 7.9375 6.015625 L 7.648438 6.15625 C 7.492188 6.226562 7.261719 6.371094 7.144531 6.46875 C 6.921875 6.65625 6.589844 7.003906 6.613281 7.019531 C 6.679688 7.0625 6.984375 7.164062 7.1875 7.214844 C 7.363281 7.257812 7.535156 7.273438 7.78125 7.257812 C 8.179688 7.238281 8.449219 7.144531 8.820312 6.914062 C 9.054688 6.761719 10.15625 5.742188 10.085938 5.738281 C 10.066406 5.738281 10.03125 5.753906 10.011719 5.773438 Z M 10.011719 5.773438 "/>
<path style=" stroke:none;fill-rule:nonzero;fill:rgb(0%,0%,0%);fill-opacity:1;" d="M 36.417969 6.253906 C 37.21875 7.023438 37.589844 7.222656 38.222656 7.257812 C 38.46875 7.273438 38.644531 7.257812 38.824219 7.214844 C 39.023438 7.164062 39.328125 7.0625 39.390625 7.023438 C 39.421875 7 39.121094 6.683594 38.886719 6.488281 C 38.753906 6.378906 38.519531 6.226562 38.359375 6.15625 L 38.070312 6.015625 L 37.285156 5.996094 C 36.585938 5.976562 36.464844 5.96875 36.261719 5.890625 C 36.136719 5.839844 36.015625 5.792969 35.996094 5.773438 C 35.976562 5.753906 35.941406 5.738281 35.921875 5.738281 C 35.898438 5.738281 36.121094 5.96875 36.417969 6.253906 Z M 36.417969 6.253906 "/>
<path style=" stroke:none;fill-rule:nonzero;fill:rgb(0%,0%,0%);fill-opacity:1;" d="M 8.378906 8.152344 C 8.191406 8.285156 7.746094 8.480469 7.511719 8.53125 C 7.410156 8.554688 7.128906 8.597656 6.894531 8.628906 C 6.175781 8.714844 5.90625 8.84375 5.457031 9.308594 C 5.191406 9.582031 4.871094 10.015625 4.902344 10.066406 C 4.910156 10.082031 5.082031 10.125 5.277344 10.160156 C 6.320312 10.347656 7.074219 9.984375 7.921875 8.886719 C 8.199219 8.53125 8.550781 8.050781 8.523438 8.050781 C 8.515625 8.054688 8.449219 8.097656 8.378906 8.152344 Z M 8.378906 8.152344 "/>
<path style=" stroke:none;fill-rule:nonzero;fill:rgb(0%,0%,0%);fill-opacity:1;" d="M 37.632812 8.28125 C 38.761719 9.902344 39.535156 10.375 40.734375 10.160156 C 40.929688 10.125 41.09375 10.082031 41.109375 10.066406 C 41.136719 10.015625 40.820312 9.585938 40.550781 9.304688 C 40.109375 8.855469 39.824219 8.714844 39.113281 8.628906 C 38.386719 8.535156 38.042969 8.425781 37.644531 8.160156 L 37.464844 8.039062 Z M 37.632812 8.28125 "/>
<path style=" stroke:none;fill-rule:nonzero;fill:rgb(0%,0%,0%);fill-opacity:1;" d="M 2.78125 9.074219 C 2.464844 9.621094 2.214844 10.144531 2.042969 10.644531 C 1.808594 11.308594 1.753906 11.582031 1.746094 12.171875 C 1.746094 12.75 1.796875 12.996094 2 13.410156 C 2.132812 13.671875 2.5 14.132812 2.710938 14.292969 C 2.84375 14.394531 2.851562 14.394531 2.898438 14.324219 C 3.035156 14.152344 3.390625 13.441406 3.503906 13.125 C 3.617188 12.792969 3.628906 12.734375 3.632812 12.285156 C 3.632812 11.808594 3.628906 11.785156 3.414062 11.019531 C 3.160156 10.109375 3.078125 9.707031 3.042969 9.105469 L 3.015625 8.667969 Z M 2.78125 9.074219 "/>
<path style=" stroke:none;fill-rule:nonzero;fill:rgb(0%,0%,0%);fill-opacity:1;" d="M 42.957031 9.15625 C 42.929688 9.730469 42.851562 10.144531 42.582031 11.085938 C 42.382812 11.777344 42.375 11.808594 42.382812 12.285156 C 42.382812 12.730469 42.390625 12.792969 42.507812 13.125 C 42.617188 13.441406 42.96875 14.148438 43.105469 14.332031 C 43.15625 14.394531 43.164062 14.390625 43.339844 14.257812 C 43.734375 13.941406 44.0625 13.414062 44.203125 12.863281 C 44.277344 12.589844 44.289062 12.480469 44.269531 12.058594 C 44.238281 11.347656 44.054688 10.703125 43.621094 9.800781 C 43.453125 9.460938 43.019531 8.6875 42.996094 8.6875 C 42.984375 8.6875 42.96875 8.898438 42.957031 9.15625 Z M 42.957031 9.15625 "/>
<path style=" stroke:none;fill-rule:nonzero;fill:rgb(0%,0%,0%);fill-opacity:1;" d="M 6.992188 11.019531 C 6.652344 11.367188 6.246094 11.578125 5.515625 11.789062 C 4.808594 11.996094 4.441406 12.246094 4.089844 12.753906 C 3.949219 12.964844 3.574219 13.667969 3.574219 13.726562 C 3.574219 13.777344 4.089844 13.792969 4.382812 13.75 C 5.324219 13.644531 5.933594 13.191406 6.542969 12.152344 C 6.6875 11.902344 7.15625 10.921875 7.144531 10.898438 C 7.128906 10.894531 7.0625 10.945312 6.992188 11.019531 Z M 6.992188 11.019531 "/>
<path style=" stroke:none;fill-rule:nonzero;fill:rgb(0%,0%,0%);fill-opacity:1;" d="M 38.855469 10.90625 C 38.855469 10.941406 39.351562 11.949219 39.464844 12.152344 C 40.074219 13.191406 40.679688 13.644531 41.628906 13.75 C 41.921875 13.792969 42.429688 13.777344 42.429688 13.726562 C 42.429688 13.667969 42.0625 12.964844 41.917969 12.753906 C 41.5625 12.246094 41.203125 11.996094 40.496094 11.789062 C 39.753906 11.578125 39.460938 11.425781 39.0625 11.0625 C 38.953125 10.953125 38.855469 10.886719 38.855469 10.90625 Z M 38.855469 10.90625 "/>
<path style=" stroke:none;fill-rule:nonzero;fill:rgb(0%,0%,0%);fill-opacity:1;" d="M 1.082031 13.097656 C 0.558594 14.714844 0.429688 15.910156 0.679688 16.894531 C 0.757812 17.222656 1.027344 17.761719 1.242188 18.015625 C 1.453125 18.265625 1.828125 18.578125 2.125 18.742188 L 2.335938 18.859375 L 2.457031 18.535156 C 2.800781 17.589844 2.886719 16.808594 2.710938 16.160156 C 2.675781 16.039062 2.441406 15.527344 2.191406 15.027344 C 1.742188 14.125 1.449219 13.375 1.347656 12.867188 C 1.316406 12.742188 1.28125 12.632812 1.269531 12.617188 C 1.253906 12.613281 1.167969 12.824219 1.082031 13.097656 Z M 1.082031 13.097656 "/>
<path style=" stroke:none;fill-rule:nonzero;fill:rgb(0%,0%,0%);fill-opacity:1;" d="M 44.707031 12.730469 C 44.6875 12.8125 44.636719 12.984375 44.601562 13.113281 C 44.476562 13.601562 44.214844 14.242188 43.832031 14.992188 C 43.285156 16.066406 43.226562 16.253906 43.226562 16.894531 C 43.226562 17.441406 43.304688 17.851562 43.550781 18.53125 L 43.675781 18.867188 L 43.8125 18.789062 C 44.484375 18.394531 44.847656 18.015625 45.121094 17.4375 C 45.304688 17.046875 45.382812 16.773438 45.4375 16.292969 C 45.527344 15.445312 45.320312 14.207031 44.882812 12.957031 L 44.753906 12.582031 Z M 44.707031 12.730469 "/>
<path style=" stroke:none;fill-rule:nonzero;fill:rgb(0%,0%,0%);fill-opacity:1;" d="M 6.144531 14.296875 C 5.835938 14.757812 5.378906 15.109375 4.613281 15.492188 C 3.734375 15.929688 3.347656 16.472656 3.058594 17.644531 L 2.96875 18.007812 L 3.167969 17.980469 C 3.503906 17.949219 3.96875 17.824219 4.246094 17.699219 C 5.007812 17.34375 5.492188 16.75 5.835938 15.753906 C 5.964844 15.367188 6.273438 14.214844 6.257812 14.167969 C 6.25 14.152344 6.199219 14.207031 6.144531 14.296875 Z M 6.144531 14.296875 "/>
<path style=" stroke:none;fill-rule:nonzero;fill:rgb(0%,0%,0%);fill-opacity:1;" d="M 39.742188 14.167969 C 39.742188 14.273438 40.085938 15.492188 40.207031 15.828125 C 40.640625 17.015625 41.296875 17.652344 42.347656 17.894531 C 42.605469 17.953125 43.050781 18.023438 43.050781 17.996094 C 43.050781 17.996094 43 17.804688 42.933594 17.574219 C 42.621094 16.421875 42.265625 15.929688 41.429688 15.507812 C 40.625 15.105469 40.210938 14.789062 39.875 14.300781 C 39.800781 14.199219 39.742188 14.140625 39.742188 14.167969 Z M 39.742188 14.167969 "/>
<path style=" stroke:none;fill-rule:nonzero;fill:rgb(0%,0%,0%);fill-opacity:1;" d="M 0.15625 17.132812 C 0.15625 17.152344 0.125 17.386719 0.09375 17.652344 C -0.113281 19.445312 0.0507812 20.960938 0.5625 21.941406 C 0.84375 22.488281 1.3125 22.988281 1.78125 23.261719 C 2.03125 23.410156 2.550781 23.632812 2.714844 23.664062 C 2.835938 23.683594 2.835938 23.683594 2.855469 23.503906 C 3.050781 22.050781 2.929688 21.171875 2.425781 20.421875 C 2.324219 20.277344 2.035156 19.902344 1.78125 19.597656 C 1.046875 18.707031 0.804688 18.339844 0.394531 17.558594 C 0.265625 17.304688 0.15625 17.109375 0.15625 17.132812 Z M 0.15625 17.132812 "/>
<path style=" stroke:none;fill-rule:nonzero;fill:rgb(0%,0%,0%);fill-opacity:1;" d="M 45.699219 17.382812 C 45.394531 18.046875 44.945312 18.71875 44.226562 19.597656 C 43.472656 20.511719 43.285156 20.839844 43.140625 21.480469 C 43.058594 21.832031 43.050781 22.722656 43.125 23.277344 L 43.175781 23.683594 L 43.289062 23.664062 C 43.453125 23.632812 43.972656 23.410156 44.234375 23.261719 C 44.347656 23.195312 44.574219 23.019531 44.730469 22.875 C 45.644531 22.042969 46.070312 20.667969 45.988281 18.757812 C 45.976562 18.199219 45.875 17.15625 45.839844 17.125 C 45.832031 17.117188 45.769531 17.238281 45.699219 17.382812 Z M 45.699219 17.382812 "/>
<path style=" stroke:none;fill-rule:nonzero;fill:rgb(0%,0%,0%);fill-opacity:1;" d="M 5.929688 17.746094 C 5.890625 17.902344 5.601562 18.429688 5.429688 18.648438 C 5.277344 18.851562 4.9375 19.171875 4.34375 19.660156 C 3.851562 20.0625 3.617188 20.429688 3.464844 21.023438 C 3.371094 21.394531 3.292969 22.066406 3.3125 22.394531 L 3.324219 22.625 L 3.703125 22.488281 C 4.417969 22.21875 4.941406 21.835938 5.285156 21.335938 C 5.71875 20.695312 5.890625 19.984375 5.960938 18.492188 C 5.996094 17.730469 5.984375 17.546875 5.929688 17.746094 Z M 5.929688 17.746094 "/>
<path style=" stroke:none;fill-rule:nonzero;fill:rgb(0%,0%,0%);fill-opacity:1;" d="M 40.03125 17.921875 C 40.039062 18.0625 40.054688 18.429688 40.070312 18.726562 C 40.160156 20.957031 40.757812 21.929688 42.445312 22.535156 L 42.714844 22.636719 L 42.691406 22.105469 C 42.65625 21.367188 42.5625 20.917969 42.347656 20.480469 C 42.191406 20.15625 41.992188 19.921875 41.578125 19.585938 C 41.058594 19.160156 40.753906 18.875 40.574219 18.648438 C 40.414062 18.4375 40.089844 17.839844 40.089844 17.761719 C 40.089844 17.738281 40.070312 17.703125 40.050781 17.691406 C 40.027344 17.679688 40.015625 17.757812 40.03125 17.921875 Z M 40.03125 17.921875 "/>
<path style=" stroke:none;fill-rule:nonzero;fill:rgb(0%,0%,0%);fill-opacity:1;" d="M 6.457031 22.011719 C 6.347656 22.703125 6.09375 23.25 5.539062 23.96875 C 5.371094 24.191406 5.171875 24.46875 5.089844 24.59375 C 4.6875 25.25 4.628906 26.125 4.90625 27.316406 C 4.957031 27.539062 5.007812 27.730469 5.015625 27.738281 C 5.019531 27.742188 5.144531 27.679688 5.289062 27.585938 C 6.75 26.667969 7.230469 25.394531 6.878906 23.402344 C 6.808594 22.980469 6.542969 21.730469 6.523438 21.710938 C 6.511719 21.710938 6.488281 21.84375 6.457031 22.011719 Z M 6.457031 22.011719 "/>
<path style=" stroke:none;fill-rule:nonzero;fill:rgb(0%,0%,0%);fill-opacity:1;" d="M 39.347656 22.339844 C 39.070312 23.582031 38.988281 24.195312 39.027344 24.820312 C 39.085938 25.859375 39.492188 26.65625 40.273438 27.273438 C 40.558594 27.492188 40.96875 27.757812 40.992188 27.738281 C 41.003906 27.722656 41.054688 27.539062 41.105469 27.3125 C 41.378906 26.109375 41.324219 25.25 40.917969 24.601562 C 40.84375 24.480469 40.644531 24.207031 40.480469 23.984375 C 39.875 23.183594 39.671875 22.757812 39.542969 21.980469 L 39.492188 21.691406 Z M 39.347656 22.339844 "/>
<path style=" stroke:none;fill-rule:nonzero;fill:rgb(0%,0%,0%);fill-opacity:1;" d="M 0.0898438 22.707031 C 0.105469 22.761719 0.140625 23.003906 0.175781 23.25 C 0.382812 24.789062 0.796875 26.125 1.34375 27.03125 C 2.078125 28.25 3.050781 28.871094 4.402344 29.015625 C 4.613281 29.035156 4.78125 29.042969 4.785156 29.042969 C 4.800781 29.023438 4.691406 28.273438 4.628906 27.910156 C 4.535156 27.445312 4.296875 26.746094 4.109375 26.425781 C 3.816406 25.929688 3.464844 25.578125 2.652344 24.984375 C 1.648438 24.25 1.019531 23.699219 0.46875 23.0625 C 0.0585938 22.589844 0.0703125 22.597656 0.0898438 22.707031 Z M 0.0898438 22.707031 "/>
<path style=" stroke:none;fill-rule:nonzero;fill:rgb(0%,0%,0%);fill-opacity:1;" d="M 45.695312 22.890625 C 45.394531 23.25 44.699219 23.945312 44.304688 24.257812 C 44.117188 24.417969 43.722656 24.714844 43.429688 24.933594 C 42.808594 25.382812 42.535156 25.613281 42.261719 25.921875 C 41.746094 26.496094 41.429688 27.367188 41.261719 28.640625 C 41.238281 28.859375 41.21875 29.035156 41.222656 29.042969 C 41.226562 29.042969 41.394531 29.035156 41.601562 29.015625 C 42.964844 28.871094 43.933594 28.25 44.671875 27.027344 C 45.097656 26.316406 45.464844 25.28125 45.683594 24.160156 C 45.753906 23.8125 45.925781 22.660156 45.914062 22.644531 C 45.910156 22.640625 45.808594 22.746094 45.695312 22.890625 Z M 45.695312 22.890625 "/>
<path style=" stroke:none;fill-rule:nonzero;fill:rgb(0%,0%,0%);fill-opacity:1;" d="M 8.152344 25.796875 C 8.164062 25.894531 8.179688 26.167969 8.179688 26.410156 C 8.1875 27.109375 8.109375 27.421875 7.613281 28.679688 C 7.386719 29.261719 7.324219 29.679688 7.382812 30.148438 C 7.453125 30.738281 7.722656 31.480469 8.136719 32.21875 L 8.316406 32.535156 L 8.484375 32.351562 C 8.820312 31.988281 9.121094 31.566406 9.304688 31.199219 C 9.859375 30.070312 9.777344 28.9375 9.015625 27.296875 C 8.816406 26.871094 8.160156 25.617188 8.128906 25.617188 C 8.125 25.617188 8.136719 25.699219 8.152344 25.796875 Z M 8.152344 25.796875 "/>
<path style=" stroke:none;fill-rule:nonzero;fill:rgb(0%,0%,0%);fill-opacity:1;" d="M 37.539062 26.222656 C 36.78125 27.636719 36.460938 28.484375 36.363281 29.324219 C 36.242188 30.378906 36.625 31.375 37.519531 32.351562 L 37.695312 32.535156 L 37.871094 32.21875 C 38.289062 31.480469 38.554688 30.738281 38.628906 30.148438 C 38.6875 29.679688 38.617188 29.261719 38.394531 28.679688 C 37.902344 27.441406 37.820312 27.101562 37.824219 26.433594 C 37.824219 26.203125 37.839844 25.921875 37.859375 25.824219 C 37.875 25.722656 37.882812 25.632812 37.878906 25.628906 C 37.871094 25.617188 37.71875 25.890625 37.539062 26.222656 Z M 37.539062 26.222656 "/>
<path style=" stroke:none;fill-rule:nonzero;fill:rgb(0%,0%,0%);fill-opacity:1;" d="M 1.5625 28.5 C 1.632812 28.734375 2.042969 29.617188 2.304688 30.132812 C 3.605469 32.652344 5.050781 33.902344 6.878906 34.085938 C 7.273438 34.128906 7.558594 34.113281 8.101562 34.019531 C 8.335938 33.988281 8.457031 33.953125 8.445312 33.921875 C 8.171875 33.265625 8.074219 33.050781 7.902344 32.714844 C 7.480469 31.90625 6.9375 31.238281 6.398438 30.890625 C 6.066406 30.675781 5.574219 30.445312 4.785156 30.132812 C 3.558594 29.652344 3 29.375 2.070312 28.765625 C 1.648438 28.496094 1.539062 28.4375 1.5625 28.5 Z M 1.5625 28.5 "/>
<path style=" stroke:none;fill-rule:nonzero;fill:rgb(0%,0%,0%);fill-opacity:1;" d="M 44.238281 28.570312 C 43.410156 29.152344 42.425781 29.667969 41.277344 30.113281 C 40.433594 30.445312 39.945312 30.667969 39.605469 30.890625 C 39.085938 31.230469 38.523438 31.90625 38.136719 32.652344 C 38.003906 32.902344 37.550781 33.917969 37.550781 33.957031 C 37.550781 33.976562 38.042969 34.050781 38.378906 34.085938 C 39.117188 34.160156 39.835938 34.03125 40.53125 33.691406 C 41.851562 33.0625 42.976562 31.71875 43.988281 29.554688 C 44.253906 28.992188 44.484375 28.449219 44.460938 28.4375 C 44.453125 28.425781 44.351562 28.484375 44.238281 28.570312 Z M 44.238281 28.570312 "/>
<path style=" stroke:none;fill-rule:nonzero;fill:rgb(0%,0%,0%);fill-opacity:1;" d="M 10.890625 29.203125 C 10.902344 29.230469 10.960938 29.382812 11.027344 29.535156 C 11.359375 30.359375 11.441406 31.058594 11.316406 32.191406 C 11.242188 32.847656 11.261719 33.5 11.359375 33.84375 C 11.558594 34.546875 12.179688 35.453125 12.980469 36.226562 L 13.246094 36.480469 L 13.40625 36.164062 C 13.605469 35.761719 13.730469 35.449219 13.839844 35.039062 C 13.964844 34.5625 13.972656 33.691406 13.851562 33.226562 C 13.625 32.367188 13.078125 31.484375 12.125 30.445312 C 11.605469 29.882812 10.859375 29.132812 10.890625 29.203125 Z M 10.890625 29.203125 "/>
<path style=" stroke:none;fill-rule:nonzero;fill:rgb(0%,0%,0%);fill-opacity:1;" d="M 34.679688 29.605469 C 33.34375 30.984375 32.761719 31.730469 32.398438 32.558594 C 32.140625 33.132812 32.074219 33.453125 32.078125 34.125 C 32.078125 34.625 32.089844 34.746094 32.179688 35.078125 C 32.285156 35.449219 32.554688 36.132812 32.699219 36.351562 L 32.773438 36.476562 L 33.136719 36.113281 C 33.9375 35.308594 34.460938 34.527344 34.648438 33.84375 C 34.746094 33.496094 34.757812 32.882812 34.695312 32.207031 C 34.570312 31.019531 34.640625 30.351562 34.996094 29.496094 C 35.070312 29.324219 35.125 29.183594 35.113281 29.171875 C 35.109375 29.171875 34.914062 29.363281 34.679688 29.605469 Z M 34.679688 29.605469 "/>
<path style=" stroke:none;fill-rule:nonzero;fill:rgb(0%,0%,0%);fill-opacity:1;" d="M 14.644531 31.984375 C 14.644531 31.988281 14.734375 32.105469 14.847656 32.230469 C 15.304688 32.75 15.671875 33.402344 15.871094 34.03125 C 15.9375 34.238281 16.050781 34.699219 16.121094 35.058594 C 16.292969 35.863281 16.382812 36.15625 16.554688 36.488281 C 16.90625 37.167969 17.386719 37.65625 18.238281 38.226562 C 18.84375 38.621094 19.574219 39.015625 19.609375 38.964844 C 19.625 38.933594 19.664062 38.714844 19.699219 38.46875 C 19.796875 37.824219 19.761719 36.957031 19.625 36.476562 C 19.386719 35.601562 19.023438 35.015625 18.289062 34.324219 C 17.539062 33.617188 16.96875 33.246094 14.769531 32.027344 C 14.699219 31.996094 14.644531 31.96875 14.644531 31.984375 Z M 14.644531 31.984375 "/>
<path style=" stroke:none;fill-rule:nonzero;fill:rgb(0%,0%,0%);fill-opacity:1;" d="M 30.589844 32.386719 C 29.113281 33.210938 28.40625 33.6875 27.757812 34.296875 C 26.914062 35.078125 26.484375 35.84375 26.304688 36.847656 C 26.214844 37.394531 26.25 38.3125 26.390625 38.929688 C 26.410156 39.011719 26.410156 39.011719 26.703125 38.855469 C 28.171875 38.074219 29.007812 37.359375 29.445312 36.515625 C 29.628906 36.15625 29.714844 35.871094 29.882812 35.058594 C 30.046875 34.265625 30.199219 33.800781 30.402344 33.378906 C 30.636719 32.90625 30.964844 32.425781 31.261719 32.121094 C 31.324219 32.054688 31.371094 31.996094 31.359375 31.984375 C 31.351562 31.980469 31.007812 32.15625 30.589844 32.386719 Z M 30.589844 32.386719 "/>
<path style=" stroke:none;fill-rule:nonzero;fill:rgb(0%,0%,0%);fill-opacity:1;" d="M 4.785156 34.222656 C 5.875 35.636719 7.207031 36.925781 8.308594 37.636719 C 9.355469 38.316406 10.347656 38.644531 11.359375 38.648438 C 11.871094 38.648438 12.238281 38.601562 12.703125 38.460938 C 13.011719 38.371094 13.835938 38.011719 13.835938 37.96875 C 13.835938 37.929688 13.183594 37.136719 12.878906 36.820312 C 12.359375 36.25 11.664062 35.722656 11.128906 35.484375 C 10.535156 35.21875 10.117188 35.125 8.898438 34.996094 C 8.390625 34.949219 7.800781 34.875 7.589844 34.847656 C 6.761719 34.722656 5.769531 34.472656 5 34.199219 L 4.675781 34.082031 Z M 4.785156 34.222656 "/>
<path style=" stroke:none;fill-rule:nonzero;fill:rgb(0%,0%,0%);fill-opacity:1;" d="M 40.992188 34.203125 C 40.265625 34.46875 39.25 34.71875 38.417969 34.847656 C 38.203125 34.875 37.621094 34.949219 37.109375 34.996094 C 35.859375 35.128906 35.441406 35.222656 34.84375 35.503906 C 34.140625 35.828125 33.367188 36.496094 32.582031 37.441406 C 32.355469 37.71875 32.167969 37.953125 32.167969 37.96875 C 32.167969 38.011719 32.992188 38.371094 33.308594 38.460938 C 33.769531 38.601562 34.140625 38.648438 34.648438 38.648438 C 35.195312 38.648438 35.632812 38.570312 36.175781 38.390625 C 37.648438 37.886719 39.171875 36.695312 40.785156 34.757812 C 41.144531 34.324219 41.332031 34.085938 41.3125 34.089844 C 41.308594 34.089844 41.164062 34.144531 40.992188 34.203125 Z M 40.992188 34.203125 "/>
<path style=" stroke:none;fill-rule:nonzero;fill:rgb(0%,0%,0%);fill-opacity:1;" d="M 15.457031 38.632812 C 15.203125 38.675781 14.722656 38.757812 14.398438 38.820312 C 12.808594 39.128906 12.320312 39.179688 10.90625 39.179688 C 9.769531 39.179688 9.726562 39.179688 9.8125 39.242188 C 10.03125 39.414062 11.371094 40.257812 11.800781 40.5 C 13.183594 41.273438 14.488281 41.789062 15.578125 41.996094 C 16.296875 42.128906 17.128906 42.148438 17.746094 42.046875 C 18.789062 41.875 19.824219 41.339844 20.59375 40.566406 L 20.757812 40.402344 L 20.34375 40.121094 C 19.445312 39.511719 18.519531 39.015625 17.875 38.804688 C 17.128906 38.570312 16.285156 38.511719 15.457031 38.632812 Z M 15.457031 38.632812 "/>
<path style=" stroke:none;fill-rule:nonzero;fill:rgb(0%,0%,0%);fill-opacity:1;" d="M 28.945312 38.621094 C 27.945312 38.78125 26.988281 39.222656 25.664062 40.121094 L 25.246094 40.402344 L 25.394531 40.546875 C 25.789062 40.945312 26.398438 41.375 26.9375 41.632812 C 28.03125 42.167969 29.457031 42.257812 30.921875 41.882812 C 32.285156 41.539062 33.90625 40.765625 35.554688 39.675781 C 35.863281 39.472656 36.148438 39.277344 36.195312 39.242188 C 36.28125 39.179688 36.230469 39.179688 35.097656 39.179688 C 33.671875 39.179688 33.261719 39.136719 31.515625 38.804688 C 30.21875 38.554688 29.574219 38.511719 28.945312 38.621094 Z M 28.945312 38.621094 "/>
<path style=" stroke:none;fill-rule:nonzero;fill:rgb(0%,0%,0%);fill-opacity:1;" d="M 21.65625 40.824219 C 21.765625 40.917969 22.015625 41.128906 22.214844 41.292969 C 22.417969 41.457031 22.585938 41.605469 22.589844 41.617188 C 22.605469 41.652344 19.417969 43.125 18.0625 43.699219 C 16.136719 44.523438 15.035156 44.90625 14.335938 44.992188 L 14.011719 45.035156 L 14.414062 46.671875 C 14.769531 48.09375 14.835938 48.296875 14.855469 48.164062 C 14.933594 47.71875 15.132812 47.351562 15.503906 46.964844 C 16.007812 46.4375 16.644531 46.007812 18.621094 44.84375 C 20.722656 43.605469 21.539062 43.097656 22.625 42.300781 C 22.859375 42.132812 23.058594 41.992188 23.074219 41.992188 C 23.089844 41.992188 23.273438 42.113281 23.472656 42.265625 C 24.515625 43.03125 25.445312 43.625 27.460938 44.808594 C 29.433594 45.972656 30.019531 46.359375 30.5625 46.890625 C 30.695312 47.023438 30.882812 47.226562 30.960938 47.347656 C 31.125 47.589844 31.28125 47.992188 31.285156 48.179688 C 31.285156 48.253906 31.296875 48.304688 31.304688 48.289062 C 31.320312 48.273438 32.132812 45.078125 32.132812 45.035156 C 32.132812 45.03125 32.015625 45.015625 31.871094 45.003906 C 30.949219 44.917969 28.785156 44.074219 25.0625 42.339844 C 24.242188 41.960938 23.574219 41.644531 23.558594 41.632812 C 23.550781 41.625 23.59375 41.574219 23.660156 41.519531 C 24.101562 41.152344 24.671875 40.671875 24.660156 40.660156 C 24.65625 40.65625 24.296875 40.824219 23.867188 41.03125 C 23.125 41.382812 23.078125 41.398438 22.96875 41.355469 C 22.90625 41.328125 22.539062 41.164062 22.15625 40.980469 L 21.46875 40.648438 Z M 21.65625 40.824219 "/>
</g>
</svg>
